<mxfile host="app.diagrams.net" modified="2021-12-09T17:46:14.403Z" agent="5.0 (Windows NT 10.0; Win64; x64) AppleWebKit/537.36 (KHTML, like Gecko) Chrome/96.0.4664.45 Safari/537.36" etag="8H6Pa17mi8pokxdPYyQF" version="15.9.4" type="github">
  <diagram id="vmroaQVfe90vQZZnpYbU" name="Page-1">
    <mxGraphModel dx="2387" dy="1113" grid="1" gridSize="10" guides="1" tooltips="1" connect="1" arrows="1" fold="1" page="1" pageScale="1" pageWidth="1100" pageHeight="850" math="0" shadow="0">
      <root>
        <mxCell id="0" />
        <mxCell id="1" parent="0" />
        <mxCell id="HFadw9TFDz5zpuYUfXbY-1" style="edgeStyle=orthogonalEdgeStyle;orthogonalLoop=1;jettySize=auto;html=1;exitX=1;exitY=0.5;exitDx=0;exitDy=0;entryX=0;entryY=0.5;entryDx=0;entryDy=0;rounded=1;" edge="1" parent="1" source="fpg7xmmu9MJaWytv52l8-156" target="fpg7xmmu9MJaWytv52l8-136">
          <mxGeometry relative="1" as="geometry" />
        </mxCell>
        <mxCell id="HFadw9TFDz5zpuYUfXbY-2" style="edgeStyle=orthogonalEdgeStyle;rounded=1;orthogonalLoop=1;jettySize=auto;html=1;exitX=1;exitY=0.5;exitDx=0;exitDy=0;entryX=0;entryY=0.5;entryDx=0;entryDy=0;" edge="1" parent="1" source="fpg7xmmu9MJaWytv52l8-155" target="fpg7xmmu9MJaWytv52l8-136">
          <mxGeometry relative="1" as="geometry" />
        </mxCell>
        <mxCell id="HFadw9TFDz5zpuYUfXbY-3" style="edgeStyle=orthogonalEdgeStyle;rounded=1;orthogonalLoop=1;jettySize=auto;html=1;exitX=1;exitY=0.5;exitDx=0;exitDy=0;entryX=0;entryY=0.5;entryDx=0;entryDy=0;" edge="1" parent="1" source="fpg7xmmu9MJaWytv52l8-154" target="fpg7xmmu9MJaWytv52l8-136">
          <mxGeometry relative="1" as="geometry" />
        </mxCell>
        <mxCell id="HFadw9TFDz5zpuYUfXbY-6" style="edgeStyle=orthogonalEdgeStyle;rounded=1;orthogonalLoop=1;jettySize=auto;html=1;exitX=1;exitY=0.5;exitDx=0;exitDy=0;entryX=0;entryY=0.5;entryDx=0;entryDy=0;" edge="1" parent="1" source="HFadw9TFDz5zpuYUfXbY-5" target="fpg7xmmu9MJaWytv52l8-155">
          <mxGeometry relative="1" as="geometry">
            <Array as="points">
              <mxPoint x="2510" y="1133" />
              <mxPoint x="2510" y="907" />
            </Array>
          </mxGeometry>
        </mxCell>
        <UserObject label="&lt;div style=&quot;display: flex ; justify-content: center ; text-align: center ; align-items: baseline ; font-size: 0 ; line-height: 1.25 ; margin-top: -2px&quot;&gt;&lt;span&gt;&lt;span class=&quot;pl-c1&quot; style=&quot;box-sizing: border-box ; font-family: , &amp;#34;consolas&amp;#34; , &amp;#34;liberation mono&amp;#34; , &amp;#34;menlo&amp;#34; , monospace ; font-size: 12px ; background-color: rgb(255 , 255 , 255)&quot;&gt;dim&lt;/span&gt;&lt;span style=&quot;color: rgb(36 , 41 , 46) ; font-family: , &amp;#34;consolas&amp;#34; , &amp;#34;liberation mono&amp;#34; , &amp;#34;menlo&amp;#34; , monospace ; font-size: 12px ; background-color: rgb(255 , 255 , 255)&quot;&gt;.&lt;/span&gt;&lt;span class=&quot;pl-c1&quot; style=&quot;box-sizing: border-box ; font-family: , &amp;#34;consolas&amp;#34; , &amp;#34;liberation mono&amp;#34; , &amp;#34;menlo&amp;#34; , monospace ; font-size: 12px ; background-color: rgb(255 , 255 , 255)&quot;&gt;risksnapshot&lt;/span&gt;&lt;br&gt;&lt;/span&gt;&lt;/div&gt;" lucidchartObjectId="rm7yS5MzjDek" id="HFadw9TFDz5zpuYUfXbY-5">
          <mxCell style="html=1;overflow=block;blockSpacing=1;whiteSpace=wrap;;whiteSpace=wrap;fontSize=13;fontFamily=Liberation Mono;spacing=3.8;strokeColor=#4881b3;strokeOpacity=100;rounded=1;absoluteArcSize=1;arcSize=9;fillColor=#F5FBFF;strokeWidth=2.3;" vertex="1" parent="1">
            <mxGeometry x="2090" y="1110" width="270" height="45" as="geometry" />
          </mxCell>
        </UserObject>
        <mxCell id="HFadw9TFDz5zpuYUfXbY-8" style="edgeStyle=orthogonalEdgeStyle;rounded=1;orthogonalLoop=1;jettySize=auto;html=1;exitX=1;exitY=0.5;exitDx=0;exitDy=0;entryX=0;entryY=0.5;entryDx=0;entryDy=0;" edge="1" parent="1" source="HFadw9TFDz5zpuYUfXbY-7" target="fpg7xmmu9MJaWytv52l8-155">
          <mxGeometry relative="1" as="geometry">
            <Array as="points">
              <mxPoint x="2520" y="1203" />
              <mxPoint x="2520" y="907" />
            </Array>
          </mxGeometry>
        </mxCell>
        <UserObject label="&lt;div style=&quot;display: flex ; justify-content: center ; text-align: center ; align-items: baseline ; font-size: 0 ; line-height: 1.25 ; margin-top: -2px&quot;&gt;&lt;span&gt;&lt;span class=&quot;pl-c1&quot; style=&quot;box-sizing: border-box ; font-family: , &amp;#34;consolas&amp;#34; , &amp;#34;liberation mono&amp;#34; , &amp;#34;menlo&amp;#34; , monospace ; font-size: 12px ; background-color: rgb(255 , 255 , 255)&quot;&gt;dim&lt;/span&gt;&lt;span style=&quot;color: rgb(36 , 41 , 46) ; font-family: , &amp;#34;consolas&amp;#34; , &amp;#34;liberation mono&amp;#34; , &amp;#34;menlo&amp;#34; , monospace ; font-size: 12px ; background-color: rgb(255 , 255 , 255)&quot;&gt;.&lt;/span&gt;&lt;span class=&quot;pl-c1&quot; style=&quot;box-sizing: border-box ; font-family: , &amp;#34;consolas&amp;#34; , &amp;#34;liberation mono&amp;#34; , &amp;#34;menlo&amp;#34; , monospace ; font-size: 12px ; background-color: rgb(255 , 255 , 255)&quot;&gt;reserveriskclassification&lt;/span&gt;&lt;br&gt;&lt;/span&gt;&lt;/div&gt;" lucidchartObjectId="rm7yS5MzjDek" id="HFadw9TFDz5zpuYUfXbY-7">
          <mxCell style="html=1;overflow=block;blockSpacing=1;whiteSpace=wrap;;whiteSpace=wrap;fontSize=13;fontFamily=Liberation Mono;spacing=3.8;strokeColor=#4881b3;strokeOpacity=100;rounded=1;absoluteArcSize=1;arcSize=9;fillColor=#F5FBFF;strokeWidth=2.3;" vertex="1" parent="1">
            <mxGeometry x="2090" y="1180" width="270" height="45" as="geometry" />
          </mxCell>
        </UserObject>
        <mxCell id="HFadw9TFDz5zpuYUfXbY-11" style="edgeStyle=orthogonalEdgeStyle;rounded=1;orthogonalLoop=1;jettySize=auto;html=1;exitX=1;exitY=0.5;exitDx=0;exitDy=0;entryX=0;entryY=0.5;entryDx=0;entryDy=0;" edge="1" parent="1" source="HFadw9TFDz5zpuYUfXbY-9" target="fpg7xmmu9MJaWytv52l8-154">
          <mxGeometry relative="1" as="geometry">
            <Array as="points">
              <mxPoint x="1840" y="890" />
              <mxPoint x="2060" y="890" />
              <mxPoint x="2060" y="833" />
            </Array>
          </mxGeometry>
        </mxCell>
        <UserObject label="&lt;span style=&quot;font-family: , &amp;#34;consolas&amp;#34; , &amp;#34;liberation mono&amp;#34; , &amp;#34;menlo&amp;#34; , monospace ; background-color: rgb(255 , 255 , 255)&quot;&gt;stg_ss{snapshotkey}.lcreserverisk&lt;/span&gt;" lucidchartObjectId="KF6yVrpoEM.6" id="HFadw9TFDz5zpuYUfXbY-9">
          <mxCell style="html=1;overflow=block;blockSpacing=1;whiteSpace=wrap;;whiteSpace=wrap;fontSize=12;fontFamily=Liberation Mono;fontColor=#24292e;spacing=3.8;strokeColor=#4881b3;strokeOpacity=100;rounded=1;absoluteArcSize=1;arcSize=9;fillColor=#F5FBFF;strokeWidth=2.3;" vertex="1" parent="1">
            <mxGeometry x="1570" y="870" width="270" height="45" as="geometry" />
          </mxCell>
        </UserObject>
        <mxCell id="HFadw9TFDz5zpuYUfXbY-13" style="edgeStyle=orthogonalEdgeStyle;rounded=1;orthogonalLoop=1;jettySize=auto;html=1;exitX=1;exitY=0.5;exitDx=0;exitDy=0;entryX=0;entryY=0.5;entryDx=0;entryDy=0;" edge="1" parent="1" source="HFadw9TFDz5zpuYUfXbY-12" target="fpg7xmmu9MJaWytv52l8-154">
          <mxGeometry relative="1" as="geometry">
            <Array as="points">
              <mxPoint x="2080" y="983" />
              <mxPoint x="2080" y="833" />
            </Array>
          </mxGeometry>
        </mxCell>
        <UserObject label="&lt;span style=&quot;font-family: , &amp;#34;consolas&amp;#34; , &amp;#34;liberation mono&amp;#34; , &amp;#34;menlo&amp;#34; , monospace ; background-color: rgb(255 , 255 , 255)&quot;&gt;stg_ss{snapshotkey}.riskclassification&lt;/span&gt;" lucidchartObjectId="KF6yVrpoEM.6" id="HFadw9TFDz5zpuYUfXbY-12">
          <mxCell style="html=1;overflow=block;blockSpacing=1;whiteSpace=wrap;;whiteSpace=wrap;fontSize=12;fontFamily=Liberation Mono;fontColor=#24292e;spacing=3.8;strokeColor=#4881b3;strokeOpacity=100;rounded=1;absoluteArcSize=1;arcSize=9;fillColor=#F5FBFF;strokeWidth=2.3;" vertex="1" parent="1">
            <mxGeometry x="1570" y="960" width="270" height="45" as="geometry" />
          </mxCell>
        </UserObject>
        <mxCell id="HFadw9TFDz5zpuYUfXbY-16" style="edgeStyle=orthogonalEdgeStyle;rounded=1;orthogonalLoop=1;jettySize=auto;html=1;exitX=1;exitY=0.5;exitDx=0;exitDy=0;entryX=0;entryY=0.5;entryDx=0;entryDy=0;" edge="1" parent="1" source="HFadw9TFDz5zpuYUfXbY-15" target="fpg7xmmu9MJaWytv52l8-155">
          <mxGeometry relative="1" as="geometry" />
        </mxCell>
        <UserObject label="&lt;div style=&quot;display: flex ; justify-content: center ; text-align: center ; align-items: baseline ; font-size: 0 ; line-height: 1.25 ; margin-top: -2px&quot;&gt;&lt;span&gt;&lt;span class=&quot;pl-c1&quot; style=&quot;box-sizing: border-box ; font-family: , &amp;#34;consolas&amp;#34; , &amp;#34;liberation mono&amp;#34; , &amp;#34;menlo&amp;#34; , monospace ; font-size: 12px ; background-color: rgb(255 , 255 , 255)&quot;&gt;dim&lt;/span&gt;&lt;span style=&quot;color: rgb(36 , 41 , 46) ; font-family: , &amp;#34;consolas&amp;#34; , &amp;#34;liberation mono&amp;#34; , &amp;#34;menlo&amp;#34; , monospace ; font-size: 12px ; background-color: rgb(255 , 255 , 255)&quot;&gt;.&lt;/span&gt;&lt;span class=&quot;pl-c1&quot; style=&quot;box-sizing: border-box ; font-family: , &amp;#34;consolas&amp;#34; , &amp;#34;liberation mono&amp;#34; , &amp;#34;menlo&amp;#34; , monospace ; font-size: 12px ; background-color: rgb(255 , 255 , 255)&quot;&gt;lloydsclassofbusiness&lt;/span&gt;&lt;br&gt;&lt;/span&gt;&lt;/div&gt;" lucidchartObjectId="rm7yS5MzjDek" id="HFadw9TFDz5zpuYUfXbY-15">
          <mxCell style="html=1;overflow=block;blockSpacing=1;whiteSpace=wrap;;whiteSpace=wrap;fontSize=13;fontFamily=Liberation Mono;spacing=3.8;strokeColor=#4881b3;strokeOpacity=100;rounded=1;absoluteArcSize=1;arcSize=9;fillColor=#F5FBFF;strokeWidth=2.3;" vertex="1" parent="1">
            <mxGeometry x="2090" y="1250" width="270" height="45" as="geometry" />
          </mxCell>
        </UserObject>
        <mxCell id="HFadw9TFDz5zpuYUfXbY-19" style="edgeStyle=orthogonalEdgeStyle;rounded=1;orthogonalLoop=1;jettySize=auto;html=1;exitX=1;exitY=0.5;exitDx=0;exitDy=0;entryX=0;entryY=0.5;entryDx=0;entryDy=0;" edge="1" parent="1" source="fpg7xmmu9MJaWytv52l8-140" target="fpg7xmmu9MJaWytv52l8-155">
          <mxGeometry relative="1" as="geometry" />
        </mxCell>
        <mxCell id="HFadw9TFDz5zpuYUfXbY-20" style="edgeStyle=orthogonalEdgeStyle;rounded=1;orthogonalLoop=1;jettySize=auto;html=1;exitX=0.94;exitY=0.5;exitDx=0;exitDy=0;exitPerimeter=0;entryX=0;entryY=0.5;entryDx=0;entryDy=0;" edge="1" parent="1" source="fpg7xmmu9MJaWytv52l8-180" target="HFadw9TFDz5zpuYUfXbY-9">
          <mxGeometry relative="1" as="geometry">
            <Array as="points">
              <mxPoint x="1410" y="458" />
              <mxPoint x="1410" y="892" />
            </Array>
          </mxGeometry>
        </mxCell>
        <mxCell id="HFadw9TFDz5zpuYUfXbY-21" style="edgeStyle=orthogonalEdgeStyle;rounded=1;orthogonalLoop=1;jettySize=auto;html=1;exitX=0.94;exitY=0.5;exitDx=0;exitDy=0;exitPerimeter=0;entryX=0;entryY=0.5;entryDx=0;entryDy=0;" edge="1" parent="1" source="fpg7xmmu9MJaWytv52l8-180" target="HFadw9TFDz5zpuYUfXbY-12">
          <mxGeometry relative="1" as="geometry">
            <Array as="points">
              <mxPoint x="1370" y="458" />
              <mxPoint x="1370" y="982" />
            </Array>
          </mxGeometry>
        </mxCell>
        <mxCell id="fpg7xmmu9MJaWytv52l8-10" parent="0" />
        <mxCell id="fpg7xmmu9MJaWytv52l8-70" value="top" parent="0" />
        <mxCell id="fpg7xmmu9MJaWytv52l8-71" value="" style="group;dropTarget=0;" parent="fpg7xmmu9MJaWytv52l8-70" vertex="1">
          <mxGeometry as="geometry" />
        </mxCell>
        <mxCell id="fpg7xmmu9MJaWytv52l8-72" parent="0" />
        <mxCell id="fpg7xmmu9MJaWytv52l8-132" value="top" parent="0" />
        <mxCell id="fpg7xmmu9MJaWytv52l8-133" value="" style="group;dropTarget=0;" parent="fpg7xmmu9MJaWytv52l8-132" vertex="1">
          <mxGeometry as="geometry" />
        </mxCell>
        <mxCell id="fpg7xmmu9MJaWytv52l8-134" parent="0" />
        <UserObject label="dim.rollup&#xa;(public.dimrollup)" lucidchartObjectId="Gp1yu8OU4XNm" id="fpg7xmmu9MJaWytv52l8-135">
          <mxCell style="html=1;overflow=block;blockSpacing=1;whiteSpace=wrap;;whiteSpace=wrap;fontSize=13;fontColor=#1d262b;fontStyle=2;spacing=3.8;strokeColor=#4881b3;strokeOpacity=100;rounded=1;absoluteArcSize=1;arcSize=9;fillColor=#F5FBFF;strokeWidth=2.3;" parent="fpg7xmmu9MJaWytv52l8-134" vertex="1">
            <mxGeometry x="3630" y="1335" width="180" height="45" as="geometry" />
          </mxCell>
        </UserObject>
        <UserObject label="&lt;div style=&quot;display: flex ; justify-content: center ; text-align: center ; align-items: baseline ; font-size: 0 ; line-height: 1.25 ; margin-top: -2px&quot;&gt;&lt;span&gt;&lt;a href=&quot;http://fact.cashflowcorpstructscenarioagg&quot;&gt;&lt;span style=&quot;font-size: 13px ; color: #1d262b ; font-style: italic&quot;&gt;fact.cashflowcorpstructscenarioagg&lt;/span&gt;&lt;/a&gt;&lt;span style=&quot;font-size: 13px ; color: #1d262b ; font-style: italic&quot;&gt; .._3&lt;/span&gt;&lt;/span&gt;&lt;/div&gt;" lucidchartObjectId="is1yB~cOgMwO" id="fpg7xmmu9MJaWytv52l8-136">
          <mxCell style="html=1;overflow=block;blockSpacing=1;whiteSpace=wrap;;whiteSpace=wrap;fontSize=13;spacing=3.8;strokeColor=#4881b3;strokeOpacity=100;rounded=1;absoluteArcSize=1;arcSize=9;fillColor=#F5FBFF;strokeWidth=2.3;" parent="fpg7xmmu9MJaWytv52l8-134" vertex="1">
            <mxGeometry x="3180" y="974" width="270" height="45" as="geometry" />
          </mxCell>
        </UserObject>
        <UserObject label="dim.risk" lucidchartObjectId="3G2yOmbZ3F8G" id="fpg7xmmu9MJaWytv52l8-137">
          <mxCell style="html=1;overflow=block;blockSpacing=1;whiteSpace=wrap;;whiteSpace=wrap;fontSize=13;fontColor=#1d262b;fontStyle=2;spacing=3.8;strokeColor=#4881b3;strokeOpacity=100;rounded=1;absoluteArcSize=1;arcSize=9;fillColor=#F5FBFF;strokeWidth=2.3;" parent="fpg7xmmu9MJaWytv52l8-134" vertex="1">
            <mxGeometry x="2090" y="1335" width="270" height="45" as="geometry" />
          </mxCell>
        </UserObject>
        <UserObject label="public.dimparty_current" lucidchartObjectId="7G2ynvKu3iQ_" id="fpg7xmmu9MJaWytv52l8-138">
          <mxCell style="html=1;overflow=block;blockSpacing=1;whiteSpace=wrap;;whiteSpace=wrap;fontSize=13;fontColor=#1d262b;fontStyle=2;spacing=3.8;strokeColor=#4881b3;strokeOpacity=100;rounded=1;absoluteArcSize=1;arcSize=9;fillColor=#F5FBFF;strokeWidth=2.3;" parent="fpg7xmmu9MJaWytv52l8-134" vertex="1">
            <mxGeometry x="3180" y="1058" width="270" height="45" as="geometry" />
          </mxCell>
        </UserObject>
        <UserObject label="public.dimcorporatestructure" lucidchartObjectId="0I2yo8fjKjZO" id="fpg7xmmu9MJaWytv52l8-139">
          <mxCell style="html=1;overflow=block;blockSpacing=1;whiteSpace=wrap;;whiteSpace=wrap;fontSize=13;fontColor=#1d262b;fontStyle=2;spacing=3.8;strokeColor=#4881b3;strokeOpacity=100;rounded=1;absoluteArcSize=1;arcSize=9;fillColor=#F5FBFF;strokeWidth=2.3;" parent="fpg7xmmu9MJaWytv52l8-134" vertex="1">
            <mxGeometry x="3180" y="1140" width="270" height="45" as="geometry" />
          </mxCell>
        </UserObject>
        <UserObject label="dim.riskclassification" lucidchartObjectId="0I2y_JNIGELw" id="fpg7xmmu9MJaWytv52l8-140">
          <mxCell style="html=1;overflow=block;blockSpacing=1;whiteSpace=wrap;;whiteSpace=wrap;fontSize=13;fontColor=#1d262b;fontStyle=2;spacing=3.8;strokeColor=#4881b3;strokeOpacity=100;rounded=1;absoluteArcSize=1;arcSize=9;fillColor=#F5FBFF;strokeWidth=2.3;" parent="fpg7xmmu9MJaWytv52l8-134" vertex="1">
            <mxGeometry x="2090" y="1480" width="270" height="45" as="geometry" />
          </mxCell>
        </UserObject>
        <UserObject label="riskcube.dimprogram" lucidchartObjectId="0I2yl4XgmqHl" id="fpg7xmmu9MJaWytv52l8-141">
          <mxCell style="html=1;overflow=block;blockSpacing=1;whiteSpace=wrap;;whiteSpace=wrap;fontSize=13;fontColor=#1d262b;fontStyle=2;spacing=3.8;strokeColor=#4881b3;strokeOpacity=100;rounded=1;absoluteArcSize=1;arcSize=9;fillColor=#F5FBFF;strokeWidth=2.3;" parent="fpg7xmmu9MJaWytv52l8-134" vertex="1">
            <mxGeometry x="3180" y="1240" width="270" height="45" as="geometry" />
          </mxCell>
        </UserObject>
        <UserObject label="dim.modelledcover" lucidchartObjectId="1I2y1B~Z7uO1" id="fpg7xmmu9MJaWytv52l8-142">
          <mxCell style="html=1;overflow=block;blockSpacing=1;whiteSpace=wrap;;whiteSpace=wrap;fontSize=13;fontColor=#1d262b;fontStyle=2;spacing=3.8;strokeColor=#4881b3;strokeOpacity=100;rounded=1;absoluteArcSize=1;arcSize=9;fillColor=#F5FBFF;strokeWidth=2.3;" parent="fpg7xmmu9MJaWytv52l8-134" vertex="1">
            <mxGeometry x="2090" y="1410" width="270" height="45" as="geometry" />
          </mxCell>
        </UserObject>
        <UserObject label="public.dimcoverparticipant" lucidchartObjectId="iM2yIYsq5-I3" id="fpg7xmmu9MJaWytv52l8-143">
          <mxCell style="html=1;overflow=block;blockSpacing=1;whiteSpace=wrap;;whiteSpace=wrap;fontSize=13;fontColor=#1d262b;fontStyle=2;spacing=3.8;strokeColor=#4881b3;strokeOpacity=100;rounded=1;absoluteArcSize=1;arcSize=9;fillColor=#F5FBFF;strokeWidth=2.3;" parent="fpg7xmmu9MJaWytv52l8-134" vertex="1">
            <mxGeometry x="3180" y="1590" width="270" height="45" as="geometry" />
          </mxCell>
        </UserObject>
        <UserObject label="public.vrfs" lucidchartObjectId="nM2yRD9ATBP5" id="fpg7xmmu9MJaWytv52l8-144">
          <mxCell style="html=1;overflow=block;blockSpacing=1;whiteSpace=wrap;;whiteSpace=wrap;fontSize=13;fontColor=#1d262b;fontStyle=2;spacing=3.8;strokeColor=#4881b3;strokeOpacity=100;rounded=1;absoluteArcSize=1;arcSize=9;fillColor=#F5FBFF;strokeWidth=2.3;" parent="fpg7xmmu9MJaWytv52l8-134" vertex="1">
            <mxGeometry x="3180" y="1680" width="270" height="45" as="geometry" />
          </mxCell>
        </UserObject>
        <UserObject label="" lucidchartObjectId="Z32ygdCLTp2j" id="fpg7xmmu9MJaWytv52l8-145">
          <mxCell style="html=1;jettySize=18;whiteSpace=wrap;fontSize=13;strokeColor=#224C72;strokeWidth=1.5;rounded=1;arcSize=12;edgeStyle=orthogonalEdgeStyle;startArrow=none;;endArrow=block;endFill=1;;exitX=1.004;exitY=0.5;exitPerimeter=0;entryX=-0.006;entryY=0.5;entryPerimeter=0;" parent="fpg7xmmu9MJaWytv52l8-134" source="fpg7xmmu9MJaWytv52l8-136" target="fpg7xmmu9MJaWytv52l8-135" edge="1">
            <mxGeometry width="100" height="100" relative="1" as="geometry">
              <Array as="points">
                <mxPoint x="3590" y="998" />
                <mxPoint x="3590" y="1358" />
              </Array>
            </mxGeometry>
          </mxCell>
        </UserObject>
        <UserObject label="" lucidchartObjectId="332yBCUjhjPS" id="fpg7xmmu9MJaWytv52l8-146">
          <mxCell style="html=1;jettySize=18;whiteSpace=wrap;fontSize=13;strokeColor=#224C72;strokeWidth=1.5;rounded=1;arcSize=12;edgeStyle=orthogonalEdgeStyle;startArrow=none;;endArrow=block;endFill=1;;exitX=1.004;exitY=0.5;exitPerimeter=0;entryX=-0.006;entryY=0.5;entryPerimeter=0;" parent="fpg7xmmu9MJaWytv52l8-134" source="fpg7xmmu9MJaWytv52l8-138" target="fpg7xmmu9MJaWytv52l8-135" edge="1">
            <mxGeometry width="100" height="100" relative="1" as="geometry">
              <Array as="points">
                <mxPoint x="3590" y="1080" />
                <mxPoint x="3590" y="1358" />
              </Array>
            </mxGeometry>
          </mxCell>
        </UserObject>
        <UserObject label="" lucidchartObjectId="632ysqIsDBbt" id="fpg7xmmu9MJaWytv52l8-147">
          <mxCell style="html=1;jettySize=18;whiteSpace=wrap;fontSize=13;strokeColor=#224C72;strokeWidth=1.5;rounded=1;arcSize=12;edgeStyle=orthogonalEdgeStyle;startArrow=none;;endArrow=block;endFill=1;;exitX=1.004;exitY=0.5;exitPerimeter=0;entryX=-0.006;entryY=0.5;entryPerimeter=0;" parent="fpg7xmmu9MJaWytv52l8-134" source="fpg7xmmu9MJaWytv52l8-139" target="fpg7xmmu9MJaWytv52l8-135" edge="1">
            <mxGeometry width="100" height="100" relative="1" as="geometry">
              <Array as="points">
                <mxPoint x="3590" y="1162" />
                <mxPoint x="3590" y="1358" />
              </Array>
            </mxGeometry>
          </mxCell>
        </UserObject>
        <UserObject label="" lucidchartObjectId="932ygQK3MYaW" id="fpg7xmmu9MJaWytv52l8-148">
          <mxCell style="html=1;jettySize=18;whiteSpace=wrap;fontSize=13;strokeColor=#224C72;strokeWidth=1.5;rounded=1;arcSize=12;edgeStyle=orthogonalEdgeStyle;startArrow=none;;endArrow=block;endFill=1;;exitX=1.004;exitY=0.5;exitPerimeter=0;entryX=-0.006;entryY=0.5;entryPerimeter=0;" parent="fpg7xmmu9MJaWytv52l8-134" source="fpg7xmmu9MJaWytv52l8-140" target="fpg7xmmu9MJaWytv52l8-135" edge="1">
            <mxGeometry width="100" height="100" relative="1" as="geometry">
              <Array as="points">
                <mxPoint x="3070" y="1503" />
                <mxPoint x="3070" y="1410" />
                <mxPoint x="3590" y="1410" />
                <mxPoint x="3590" y="1357" />
              </Array>
            </mxGeometry>
          </mxCell>
        </UserObject>
        <UserObject label="" lucidchartObjectId="_32yNz5y7Vtl" id="fpg7xmmu9MJaWytv52l8-149">
          <mxCell style="html=1;jettySize=18;whiteSpace=wrap;fontSize=13;strokeColor=#224C72;strokeWidth=1.5;rounded=1;arcSize=12;edgeStyle=orthogonalEdgeStyle;startArrow=none;;endArrow=block;endFill=1;;exitX=1.004;exitY=0.5;exitPerimeter=0;entryX=-0.006;entryY=0.5;entryPerimeter=0;" parent="fpg7xmmu9MJaWytv52l8-134" source="fpg7xmmu9MJaWytv52l8-141" target="fpg7xmmu9MJaWytv52l8-135" edge="1">
            <mxGeometry width="100" height="100" relative="1" as="geometry">
              <Array as="points">
                <mxPoint x="3540" y="1262" />
                <mxPoint x="3540" y="1358" />
              </Array>
            </mxGeometry>
          </mxCell>
        </UserObject>
        <UserObject label="" lucidchartObjectId="~32yZy3olu0E" id="fpg7xmmu9MJaWytv52l8-150">
          <mxCell style="html=1;jettySize=18;whiteSpace=wrap;fontSize=13;strokeColor=#224C72;strokeWidth=1.5;rounded=1;arcSize=12;edgeStyle=orthogonalEdgeStyle;startArrow=none;;endArrow=block;endFill=1;;exitX=1.004;exitY=0.5;exitPerimeter=0;entryX=-0.006;entryY=0.5;entryPerimeter=0;" parent="fpg7xmmu9MJaWytv52l8-134" source="fpg7xmmu9MJaWytv52l8-142" target="fpg7xmmu9MJaWytv52l8-135" edge="1">
            <mxGeometry width="100" height="100" relative="1" as="geometry">
              <Array as="points">
                <mxPoint x="3040" y="1432" />
                <mxPoint x="3040" y="1358" />
              </Array>
            </mxGeometry>
          </mxCell>
        </UserObject>
        <UserObject label="" lucidchartObjectId="c42y4aM15P~t" id="fpg7xmmu9MJaWytv52l8-151">
          <mxCell style="html=1;jettySize=18;whiteSpace=wrap;fontSize=13;strokeColor=#224C72;strokeWidth=1.5;rounded=1;arcSize=12;edgeStyle=orthogonalEdgeStyle;startArrow=none;;endArrow=block;endFill=1;;exitX=1.004;exitY=0.5;exitPerimeter=0;entryX=-0.006;entryY=0.5;entryPerimeter=0;" parent="fpg7xmmu9MJaWytv52l8-134" source="fpg7xmmu9MJaWytv52l8-137" target="fpg7xmmu9MJaWytv52l8-135" edge="1">
            <mxGeometry width="100" height="100" relative="1" as="geometry">
              <Array as="points" />
            </mxGeometry>
          </mxCell>
        </UserObject>
        <UserObject label="" lucidchartObjectId="e42yX4Y.77t1" id="fpg7xmmu9MJaWytv52l8-152">
          <mxCell style="html=1;jettySize=18;whiteSpace=wrap;fontSize=13;strokeColor=#224C72;strokeWidth=1.5;rounded=1;arcSize=12;edgeStyle=orthogonalEdgeStyle;startArrow=none;;endArrow=block;endFill=1;;exitX=1.004;exitY=0.5;exitPerimeter=0;entryX=-0.006;entryY=0.5;entryPerimeter=0;" parent="fpg7xmmu9MJaWytv52l8-134" source="fpg7xmmu9MJaWytv52l8-143" target="fpg7xmmu9MJaWytv52l8-135" edge="1">
            <mxGeometry width="100" height="100" relative="1" as="geometry">
              <Array as="points">
                <mxPoint x="3590" y="1612" />
                <mxPoint x="3590" y="1358" />
              </Array>
            </mxGeometry>
          </mxCell>
        </UserObject>
        <UserObject label="" lucidchartObjectId="i42yx12M4Q2f" id="fpg7xmmu9MJaWytv52l8-153">
          <mxCell style="html=1;jettySize=18;whiteSpace=wrap;fontSize=13;strokeColor=#224C72;strokeWidth=1.5;rounded=1;arcSize=12;edgeStyle=orthogonalEdgeStyle;startArrow=none;;endArrow=block;endFill=1;;exitX=1.004;exitY=0.5;exitPerimeter=0;entryX=-0.006;entryY=0.5;entryPerimeter=0;" parent="fpg7xmmu9MJaWytv52l8-134" source="fpg7xmmu9MJaWytv52l8-144" target="fpg7xmmu9MJaWytv52l8-135" edge="1">
            <mxGeometry width="100" height="100" relative="1" as="geometry">
              <Array as="points">
                <mxPoint x="3590" y="1702" />
                <mxPoint x="3590" y="1358" />
              </Array>
            </mxGeometry>
          </mxCell>
        </UserObject>
        <UserObject label="snapshotPbx.fact_cashflow_{snapshotkey}" lucidchartObjectId="U83yd9o2fskE" id="fpg7xmmu9MJaWytv52l8-154">
          <mxCell style="html=1;overflow=block;blockSpacing=1;whiteSpace=wrap;;whiteSpace=wrap;fontSize=13;fontColor=#1d262b;fontStyle=2;spacing=3.8;strokeColor=#4881b3;strokeOpacity=100;rounded=1;absoluteArcSize=1;arcSize=9;fillColor=#F5FBFF;strokeWidth=2.3;" parent="fpg7xmmu9MJaWytv52l8-134" vertex="1">
            <mxGeometry x="2700" y="810" width="270" height="45" as="geometry" />
          </mxCell>
        </UserObject>
        <UserObject label="fact.distributionparticipant" lucidchartObjectId="f93yB1UyILGA" id="fpg7xmmu9MJaWytv52l8-155">
          <mxCell style="html=1;overflow=block;blockSpacing=1;whiteSpace=wrap;;whiteSpace=wrap;fontSize=13;fontColor=#1d262b;fontStyle=2;spacing=3.8;strokeColor=#4881b3;strokeOpacity=100;rounded=1;absoluteArcSize=1;arcSize=9;fillColor=#F5FBFF;strokeWidth=2.3;" parent="fpg7xmmu9MJaWytv52l8-134" vertex="1">
            <mxGeometry x="2700" y="885" width="270" height="45" as="geometry" />
          </mxCell>
        </UserObject>
        <UserObject label="stg_ss{snapshotkey}.acie" lucidchartObjectId="h93y5ddoDoyH" id="fpg7xmmu9MJaWytv52l8-156">
          <mxCell style="html=1;overflow=block;blockSpacing=1;whiteSpace=wrap;;whiteSpace=wrap;fontSize=13;fontColor=#1d262b;fontStyle=2;spacing=3.8;strokeColor=#4881b3;strokeOpacity=100;rounded=1;absoluteArcSize=1;arcSize=9;fillColor=#F5FBFF;strokeWidth=2.3;" parent="fpg7xmmu9MJaWytv52l8-134" vertex="1">
            <mxGeometry x="2700" y="960" width="270" height="45" as="geometry" />
          </mxCell>
        </UserObject>
        <UserObject label="stg_ss{snapshotkey}.cashflow" lucidchartObjectId="cE6ykPkP2mPz" id="fpg7xmmu9MJaWytv52l8-160">
          <mxCell style="html=1;overflow=block;blockSpacing=1;whiteSpace=wrap;;whiteSpace=wrap;fontSize=12;fontFamily=Liberation Mono;fontColor=#24292e;spacing=3.8;strokeColor=#4881b3;strokeOpacity=100;rounded=1;absoluteArcSize=1;arcSize=9;fillColor=#F5FBFF;strokeWidth=2.3;" parent="fpg7xmmu9MJaWytv52l8-134" vertex="1">
            <mxGeometry x="1575" y="30" width="270" height="45" as="geometry" />
          </mxCell>
        </UserObject>
        <UserObject label="" lucidchartObjectId="EF6y4BjWZp7x" id="fpg7xmmu9MJaWytv52l8-161">
          <mxCell style="html=1;jettySize=18;whiteSpace=wrap;fontSize=13;strokeColor=#224C72;strokeWidth=1.5;rounded=1;arcSize=12;edgeStyle=orthogonalEdgeStyle;startArrow=none;;endArrow=block;endFill=1;;exitX=1.004;exitY=0.5;exitPerimeter=0;entryX=-0.004;entryY=0.5;entryPerimeter=0;" parent="fpg7xmmu9MJaWytv52l8-134" source="fpg7xmmu9MJaWytv52l8-160" target="fpg7xmmu9MJaWytv52l8-154" edge="1">
            <mxGeometry width="100" height="100" relative="1" as="geometry">
              <Array as="points">
                <mxPoint x="2670" y="53" />
                <mxPoint x="2670" y="833" />
              </Array>
            </mxGeometry>
          </mxCell>
        </UserObject>
        <UserObject label="&lt;div style=&quot;display: flex; justify-content: center; text-align: center; align-items: baseline; font-size: 0; line-height: 1.25;margin-top: -2px;&quot;&gt;&lt;span&gt;&lt;span style=&quot;font-size:12px;color:#000000;font-family: Liberation Mono;&quot;&gt;dim&lt;/span&gt;&lt;span style=&quot;font-size:12px;color:#24292e;font-family: Liberation Mono;&quot;&gt;.&lt;/span&gt;&lt;span style=&quot;font-size:12px;color:#000000;font-family: Liberation Mono;&quot;&gt;model&lt;/span&gt;&lt;/span&gt;&lt;/div&gt;" lucidchartObjectId="KF6ybQjwh6rm" id="fpg7xmmu9MJaWytv52l8-162">
          <mxCell style="html=1;overflow=block;blockSpacing=1;whiteSpace=wrap;;whiteSpace=wrap;fontSize=13;fontFamily=Liberation Mono;spacing=3.8;strokeColor=#4881b3;strokeOpacity=100;rounded=1;absoluteArcSize=1;arcSize=9;fillColor=#F5FBFF;strokeWidth=2.3;" parent="fpg7xmmu9MJaWytv52l8-134" vertex="1">
            <mxGeometry x="2100" y="180" width="270" height="45" as="geometry" />
          </mxCell>
        </UserObject>
        <UserObject label="stg_ss{snapshotkey}.participant" lucidchartObjectId="KF6yVrpoEM.6" id="fpg7xmmu9MJaWytv52l8-163">
          <mxCell style="html=1;overflow=block;blockSpacing=1;whiteSpace=wrap;;whiteSpace=wrap;fontSize=12;fontFamily=Liberation Mono;fontColor=#24292e;spacing=3.8;strokeColor=#4881b3;strokeOpacity=100;rounded=1;absoluteArcSize=1;arcSize=9;fillColor=#F5FBFF;strokeWidth=2.3;" parent="fpg7xmmu9MJaWytv52l8-134" vertex="1">
            <mxGeometry x="1575" y="780" width="270" height="45" as="geometry" />
          </mxCell>
        </UserObject>
        <UserObject label="&lt;div style=&quot;display: flex; justify-content: center; text-align: center; align-items: baseline; font-size: 0; line-height: 1.25;margin-top: -2px;&quot;&gt;&lt;span&gt;&lt;span style=&quot;font-size:12px;color:#000000;font-family: Liberation Mono;&quot;&gt;dim&lt;/span&gt;&lt;span style=&quot;font-size:12px;color:#24292e;font-family: Liberation Mono;&quot;&gt;.&lt;/span&gt;&lt;span style=&quot;font-size:12px;color:#000000;font-family: Liberation Mono;&quot;&gt;resultset&lt;/span&gt;&lt;/span&gt;&lt;/div&gt;" lucidchartObjectId="aI6yx5YWhfZR" id="fpg7xmmu9MJaWytv52l8-164">
          <mxCell style="html=1;overflow=block;blockSpacing=1;whiteSpace=wrap;;whiteSpace=wrap;fontSize=13;fontFamily=Liberation Mono;spacing=3.8;strokeColor=#4881b3;strokeOpacity=100;rounded=1;absoluteArcSize=1;arcSize=9;fillColor=#F5FBFF;strokeWidth=2.3;" parent="fpg7xmmu9MJaWytv52l8-134" vertex="1">
            <mxGeometry x="2100" y="255" width="270" height="45" as="geometry" />
          </mxCell>
        </UserObject>
        <UserObject label="&lt;div style=&quot;display: flex; justify-content: center; text-align: center; align-items: baseline; font-size: 0; line-height: 1.25;margin-top: -2px;&quot;&gt;&lt;span&gt;&lt;span style=&quot;font-size:12px;color:#000000;font-family: Liberation Mono;&quot;&gt;dim&lt;/span&gt;&lt;span style=&quot;font-size:12px;color:#24292e;font-family: Liberation Mono;&quot;&gt;.&lt;/span&gt;&lt;span style=&quot;font-size:12px;color:#000000;font-family: Liberation Mono;&quot;&gt;scenario&lt;/span&gt;&lt;/span&gt;&lt;/div&gt;" lucidchartObjectId="wI6ynsnoC57v" id="fpg7xmmu9MJaWytv52l8-165">
          <mxCell style="html=1;overflow=block;blockSpacing=1;whiteSpace=wrap;;whiteSpace=wrap;fontSize=13;fontFamily=Liberation Mono;spacing=3.8;strokeColor=#4881b3;strokeOpacity=100;rounded=1;absoluteArcSize=1;arcSize=9;fillColor=#F5FBFF;strokeWidth=2.3;" parent="fpg7xmmu9MJaWytv52l8-134" vertex="1">
            <mxGeometry x="2100" y="330" width="270" height="45" as="geometry" />
          </mxCell>
        </UserObject>
        <UserObject label="&lt;div style=&quot;display: flex; justify-content: center; text-align: center; align-items: baseline; font-size: 0; line-height: 1.25;margin-top: -2px;&quot;&gt;&lt;span&gt;&lt;span style=&quot;font-size:12px;color:#000000;font-family: Liberation Mono;&quot;&gt;fact&lt;/span&gt;&lt;span style=&quot;font-size:12px;color:#24292e;font-family: Liberation Mono;&quot;&gt;.&lt;/span&gt;&lt;span style=&quot;font-size:12px;color:#000000;font-family: Liberation Mono;&quot;&gt;deteventfootprint&lt;/span&gt;&lt;/span&gt;&lt;/div&gt;" lucidchartObjectId="wI6y4XEbj4sT" id="fpg7xmmu9MJaWytv52l8-166">
          <mxCell style="html=1;overflow=block;blockSpacing=1;whiteSpace=wrap;;whiteSpace=wrap;fontSize=13;fontFamily=Liberation Mono;spacing=3.8;strokeColor=#4881b3;strokeOpacity=100;rounded=1;absoluteArcSize=1;arcSize=9;fillColor=#F5FBFF;strokeWidth=2.3;" parent="fpg7xmmu9MJaWytv52l8-134" vertex="1">
            <mxGeometry x="2100" y="630" width="270" height="45" as="geometry" />
          </mxCell>
        </UserObject>
        <UserObject label="&lt;div style=&quot;display: flex; justify-content: center; text-align: center; align-items: baseline; font-size: 0; line-height: 1.25;margin-top: -2px;&quot;&gt;&lt;span&gt;&lt;span style=&quot;font-size:12px;color:#000000;font-family: Liberation Mono;&quot;&gt;dim&lt;/span&gt;&lt;span style=&quot;font-size:12px;color:#24292e;font-family: Liberation Mono;&quot;&gt;.&lt;/span&gt;&lt;span style=&quot;font-size:12px;color:#000000;font-family: Liberation Mono;&quot;&gt;exposurebucket&lt;/span&gt;&lt;/span&gt;&lt;/div&gt;" lucidchartObjectId="wI6yPY0J6xzI" id="fpg7xmmu9MJaWytv52l8-167">
          <mxCell style="html=1;overflow=block;blockSpacing=1;whiteSpace=wrap;;whiteSpace=wrap;fontSize=13;fontFamily=Liberation Mono;spacing=3.8;strokeColor=#4881b3;strokeOpacity=100;rounded=1;absoluteArcSize=1;arcSize=9;fillColor=#F5FBFF;strokeWidth=2.3;" parent="fpg7xmmu9MJaWytv52l8-134" vertex="1">
            <mxGeometry x="2100" y="480" width="270" height="45" as="geometry" />
          </mxCell>
        </UserObject>
        <UserObject label="&lt;div style=&quot;display: flex; justify-content: center; text-align: center; align-items: baseline; font-size: 0; line-height: 1.25;margin-top: -2px;&quot;&gt;&lt;span&gt;&lt;span style=&quot;font-size:12px;color:#000000;font-family: Liberation Mono;&quot;&gt;dim&lt;/span&gt;&lt;span style=&quot;font-size:12px;color:#24292e;font-family: Liberation Mono;&quot;&gt;.&lt;/span&gt;&lt;span style=&quot;font-size:12px;color:#000000;font-family: Liberation Mono;&quot;&gt;exposurehazard&lt;/span&gt;&lt;/span&gt;&lt;/div&gt;" lucidchartObjectId="wI6yH7PgNrBn" id="fpg7xmmu9MJaWytv52l8-168">
          <mxCell style="html=1;overflow=block;blockSpacing=1;whiteSpace=wrap;;whiteSpace=wrap;fontSize=13;fontFamily=Liberation Mono;spacing=3.8;strokeColor=#4881b3;strokeOpacity=100;rounded=1;absoluteArcSize=1;arcSize=9;fillColor=#F5FBFF;strokeWidth=2.3;" parent="fpg7xmmu9MJaWytv52l8-134" vertex="1">
            <mxGeometry x="2100" y="405" width="270" height="45" as="geometry" />
          </mxCell>
        </UserObject>
        <UserObject label="&lt;div style=&quot;display: flex; justify-content: center; text-align: center; align-items: baseline; font-size: 0; line-height: 1.25;margin-top: -2px;&quot;&gt;&lt;span&gt;&lt;span style=&quot;font-size:12px;color:#000000;font-family: Liberation Mono;&quot;&gt;fact&lt;/span&gt;&lt;span style=&quot;font-size:12px;color:#24292e;font-family: Liberation Mono;&quot;&gt;.&lt;/span&gt;&lt;span style=&quot;font-size:12px;color:#000000;font-family: Liberation Mono;&quot;&gt;mssampledevent&lt;/span&gt;&lt;/span&gt;&lt;/div&gt;" lucidchartObjectId="wI6ygdqHY5QU" id="fpg7xmmu9MJaWytv52l8-169">
          <mxCell style="html=1;overflow=block;blockSpacing=1;whiteSpace=wrap;;whiteSpace=wrap;fontSize=13;fontFamily=Liberation Mono;spacing=3.8;strokeColor=#4881b3;strokeOpacity=100;rounded=1;absoluteArcSize=1;arcSize=9;fillColor=#F5FBFF;strokeWidth=2.3;" parent="fpg7xmmu9MJaWytv52l8-134" vertex="1">
            <mxGeometry x="2100" y="555" width="270" height="45" as="geometry" />
          </mxCell>
        </UserObject>
        <UserObject label="&lt;div style=&quot;display: flex; justify-content: center; text-align: center; align-items: baseline; font-size: 0; line-height: 1.25;margin-top: -2px;&quot;&gt;&lt;span&gt;&lt;span style=&quot;font-size:12px;color:#000000;font-family: Liberation Mono;&quot;&gt;dim&lt;/span&gt;&lt;span style=&quot;font-size:12px;color:#24292e;font-family: Liberation Mono;&quot;&gt;.&lt;/span&gt;&lt;span style=&quot;font-size:12px;color:#000000;font-family: Liberation Mono;&quot;&gt;detevent&lt;/span&gt;&lt;/span&gt;&lt;/div&gt;" lucidchartObjectId="lK6yEAbmDf.f" id="fpg7xmmu9MJaWytv52l8-170">
          <mxCell style="html=1;overflow=block;blockSpacing=1;whiteSpace=wrap;;whiteSpace=wrap;fontSize=13;fontFamily=Liberation Mono;spacing=3.8;strokeColor=#4881b3;strokeOpacity=100;rounded=1;absoluteArcSize=1;arcSize=9;fillColor=#F5FBFF;strokeWidth=2.3;" parent="fpg7xmmu9MJaWytv52l8-134" vertex="1">
            <mxGeometry x="2100" y="720" width="270" height="45" as="geometry" />
          </mxCell>
        </UserObject>
        <UserObject label="" lucidchartObjectId="MN6ysqjpbDgS" id="fpg7xmmu9MJaWytv52l8-171">
          <mxCell style="html=1;jettySize=18;whiteSpace=wrap;fontSize=13;strokeColor=#224C72;strokeWidth=1.5;rounded=1;arcSize=12;edgeStyle=orthogonalEdgeStyle;startArrow=none;;endArrow=block;endFill=1;;exitX=1.004;exitY=0.5;exitPerimeter=0;entryX=-0.004;entryY=0.5;entryPerimeter=0;" parent="fpg7xmmu9MJaWytv52l8-134" source="fpg7xmmu9MJaWytv52l8-163" target="fpg7xmmu9MJaWytv52l8-154" edge="1">
            <mxGeometry width="100" height="100" relative="1" as="geometry">
              <Array as="points" />
            </mxGeometry>
          </mxCell>
        </UserObject>
        <UserObject label="" lucidchartObjectId="QN6yFwvV7.Ni" id="fpg7xmmu9MJaWytv52l8-172">
          <mxCell style="html=1;jettySize=18;whiteSpace=wrap;fontSize=13;strokeColor=#224C72;strokeWidth=1.5;rounded=1;arcSize=12;edgeStyle=orthogonalEdgeStyle;startArrow=none;;endArrow=block;endFill=1;;exitX=1.004;exitY=0.5;exitPerimeter=0;entryX=-0.004;entryY=0.5;entryPerimeter=0;" parent="fpg7xmmu9MJaWytv52l8-134" source="fpg7xmmu9MJaWytv52l8-162" target="fpg7xmmu9MJaWytv52l8-154" edge="1">
            <mxGeometry width="100" height="100" relative="1" as="geometry">
              <Array as="points">
                <mxPoint x="2640" y="203" />
                <mxPoint x="2640" y="833" />
              </Array>
            </mxGeometry>
          </mxCell>
        </UserObject>
        <UserObject label="" lucidchartObjectId="TN6y1spJdZ1y" id="fpg7xmmu9MJaWytv52l8-173">
          <mxCell style="html=1;jettySize=18;whiteSpace=wrap;fontSize=13;strokeColor=#224C72;strokeWidth=1.5;rounded=1;arcSize=12;edgeStyle=orthogonalEdgeStyle;startArrow=none;;endArrow=block;endFill=1;;exitX=1.004;exitY=0.5;exitPerimeter=0;entryX=-0.004;entryY=0.5;entryPerimeter=0;" parent="fpg7xmmu9MJaWytv52l8-134" source="fpg7xmmu9MJaWytv52l8-164" target="fpg7xmmu9MJaWytv52l8-154" edge="1">
            <mxGeometry width="100" height="100" relative="1" as="geometry">
              <Array as="points">
                <mxPoint x="2620" y="278" />
                <mxPoint x="2620" y="833" />
              </Array>
            </mxGeometry>
          </mxCell>
        </UserObject>
        <UserObject label="" lucidchartObjectId="WN6yfKLh4OzB" id="fpg7xmmu9MJaWytv52l8-174">
          <mxCell style="html=1;jettySize=18;whiteSpace=wrap;fontSize=13;strokeColor=#224C72;strokeWidth=1.5;rounded=1;arcSize=12;edgeStyle=orthogonalEdgeStyle;startArrow=none;;endArrow=block;endFill=1;;exitX=1.004;exitY=0.5;exitPerimeter=0;entryX=-0.004;entryY=0.5;entryPerimeter=0;" parent="fpg7xmmu9MJaWytv52l8-134" source="fpg7xmmu9MJaWytv52l8-165" target="fpg7xmmu9MJaWytv52l8-154" edge="1">
            <mxGeometry width="100" height="100" relative="1" as="geometry">
              <Array as="points">
                <mxPoint x="2610" y="353" />
                <mxPoint x="2610" y="833" />
              </Array>
            </mxGeometry>
          </mxCell>
        </UserObject>
        <UserObject label="" lucidchartObjectId="0N6yS-1OhOHB" id="fpg7xmmu9MJaWytv52l8-175">
          <mxCell style="html=1;jettySize=18;whiteSpace=wrap;fontSize=13;strokeColor=#224C72;strokeWidth=1.5;rounded=1;arcSize=12;edgeStyle=orthogonalEdgeStyle;startArrow=none;;endArrow=block;endFill=1;;exitX=1.004;exitY=0.5;exitPerimeter=0;entryX=-0.004;entryY=0.5;entryPerimeter=0;" parent="fpg7xmmu9MJaWytv52l8-134" source="fpg7xmmu9MJaWytv52l8-168" target="fpg7xmmu9MJaWytv52l8-154" edge="1">
            <mxGeometry width="100" height="100" relative="1" as="geometry">
              <Array as="points">
                <mxPoint x="2600" y="428" />
                <mxPoint x="2600" y="833" />
              </Array>
            </mxGeometry>
          </mxCell>
        </UserObject>
        <UserObject label="" lucidchartObjectId="2N6yE9v4Bxh0" id="fpg7xmmu9MJaWytv52l8-176">
          <mxCell style="html=1;jettySize=18;whiteSpace=wrap;fontSize=13;strokeColor=#224C72;strokeWidth=1.5;rounded=1;arcSize=12;edgeStyle=orthogonalEdgeStyle;startArrow=none;;endArrow=block;endFill=1;;exitX=1.004;exitY=0.5;exitPerimeter=0;entryX=-0.004;entryY=0.45;entryPerimeter=0;" parent="fpg7xmmu9MJaWytv52l8-134" source="fpg7xmmu9MJaWytv52l8-167" target="fpg7xmmu9MJaWytv52l8-154" edge="1">
            <mxGeometry width="100" height="100" relative="1" as="geometry">
              <Array as="points">
                <mxPoint x="2590" y="503" />
                <mxPoint x="2590" y="830" />
              </Array>
            </mxGeometry>
          </mxCell>
        </UserObject>
        <UserObject label="" lucidchartObjectId="6N6yxrte.s88" id="fpg7xmmu9MJaWytv52l8-177">
          <mxCell style="html=1;jettySize=18;whiteSpace=wrap;fontSize=13;strokeColor=#224C72;strokeWidth=1.5;rounded=1;arcSize=12;edgeStyle=orthogonalEdgeStyle;startArrow=none;;endArrow=block;endFill=1;;exitX=1.004;exitY=0.5;exitPerimeter=0;entryX=-0.004;entryY=0.5;entryPerimeter=0;" parent="fpg7xmmu9MJaWytv52l8-134" source="fpg7xmmu9MJaWytv52l8-169" target="fpg7xmmu9MJaWytv52l8-154" edge="1">
            <mxGeometry width="100" height="100" relative="1" as="geometry">
              <Array as="points">
                <mxPoint x="2580" y="578" />
                <mxPoint x="2580" y="833" />
              </Array>
            </mxGeometry>
          </mxCell>
        </UserObject>
        <UserObject label="" lucidchartObjectId="9N6y099VSl_p" id="fpg7xmmu9MJaWytv52l8-178">
          <mxCell style="html=1;jettySize=18;whiteSpace=wrap;fontSize=13;strokeColor=#224C72;strokeWidth=1.5;rounded=1;arcSize=12;edgeStyle=orthogonalEdgeStyle;startArrow=none;;endArrow=block;endFill=1;;exitX=1.004;exitY=0.5;exitPerimeter=0;entryX=-0.004;entryY=0.5;entryPerimeter=0;" parent="fpg7xmmu9MJaWytv52l8-134" source="fpg7xmmu9MJaWytv52l8-166" target="fpg7xmmu9MJaWytv52l8-154" edge="1">
            <mxGeometry width="100" height="100" relative="1" as="geometry">
              <Array as="points">
                <mxPoint x="2570" y="653" />
                <mxPoint x="2570" y="833" />
              </Array>
            </mxGeometry>
          </mxCell>
        </UserObject>
        <UserObject label="" lucidchartObjectId=".N6yUQroS5Nl" id="fpg7xmmu9MJaWytv52l8-179">
          <mxCell style="html=1;jettySize=18;whiteSpace=wrap;fontSize=13;strokeColor=#224C72;strokeWidth=1.5;rounded=1;arcSize=12;edgeStyle=orthogonalEdgeStyle;startArrow=none;;endArrow=block;endFill=1;;exitX=1.004;exitY=0.5;exitPerimeter=0;entryX=-0.004;entryY=0.5;entryPerimeter=0;" parent="fpg7xmmu9MJaWytv52l8-134" source="fpg7xmmu9MJaWytv52l8-170" target="fpg7xmmu9MJaWytv52l8-154" edge="1">
            <mxGeometry width="100" height="100" relative="1" as="geometry">
              <Array as="points">
                <mxPoint x="2560" y="743" />
                <mxPoint x="2560" y="833" />
              </Array>
            </mxGeometry>
          </mxCell>
        </UserObject>
        <UserObject label="S3-AWS-Rollup" lucidchartObjectId="-06yPA0qkBY2" id="fpg7xmmu9MJaWytv52l8-180">
          <mxCell style="html=1;overflow=block;blockSpacing=1;whiteSpace=wrap;shape=mxgraph.aws3.bucket_with_objects;labelPosition=center;verticalLabelPosition=bottom;align=center;verticalAlign=top;whiteSpace=wrap;fontSize=13;fontColor=#1d262b;spacing=3.8;strokeColor=#4881b3;strokeOpacity=100;rounded=1;absoluteArcSize=1;arcSize=9;fillColor=#e05243;strokeWidth=2.3;" parent="fpg7xmmu9MJaWytv52l8-134" vertex="1">
            <mxGeometry x="1005" y="405" width="87" height="105" as="geometry" />
          </mxCell>
        </UserObject>
        <UserObject label="" lucidchartObjectId="k46yThJHmtwE" id="fpg7xmmu9MJaWytv52l8-181">
          <mxCell style="html=1;jettySize=18;whiteSpace=wrap;fontSize=13;strokeColor=#224C72;strokeWidth=1.5;rounded=1;arcSize=12;edgeStyle=orthogonalEdgeStyle;startArrow=none;;endArrow=block;endFill=1;;exitX=0.928;exitY=0.455;exitPerimeter=0;entryX=-0.004;entryY=0.516;entryPerimeter=0;" parent="fpg7xmmu9MJaWytv52l8-134" source="fpg7xmmu9MJaWytv52l8-180" target="fpg7xmmu9MJaWytv52l8-160" edge="1">
            <mxGeometry width="100" height="100" relative="1" as="geometry">
              <Array as="points">
                <mxPoint x="1460" y="453" />
                <mxPoint x="1460" y="53" />
              </Array>
            </mxGeometry>
          </mxCell>
        </UserObject>
        <UserObject label="" lucidchartObjectId="u46yz6Qf8q4d" id="fpg7xmmu9MJaWytv52l8-182">
          <mxCell style="html=1;jettySize=18;whiteSpace=wrap;fontSize=13;strokeColor=#224C72;strokeWidth=1.5;rounded=1;arcSize=12;edgeStyle=orthogonalEdgeStyle;startArrow=none;;endArrow=block;endFill=1;;exitX=0.928;exitY=0.455;exitPerimeter=0;entryX=-0.004;entryY=0.5;entryPerimeter=0;" parent="fpg7xmmu9MJaWytv52l8-134" source="fpg7xmmu9MJaWytv52l8-180" target="fpg7xmmu9MJaWytv52l8-163" edge="1">
            <mxGeometry width="100" height="100" relative="1" as="geometry">
              <Array as="points">
                <mxPoint x="1460" y="453" />
                <mxPoint x="1460" y="803" />
              </Array>
            </mxGeometry>
          </mxCell>
        </UserObject>
        <UserObject label="" lucidchartObjectId="Ta7yPgU2-p1X" id="fpg7xmmu9MJaWytv52l8-183">
          <mxCell style="html=1;jettySize=18;whiteSpace=wrap;fontSize=13;strokeColor=#224C72;strokeWidth=1.5;rounded=1;arcSize=12;edgeStyle=orthogonalEdgeStyle;startArrow=none;;endArrow=block;endFill=1;;exitX=1.004;exitY=0.5;exitPerimeter=0;entryX=-0.004;entryY=0.5;entryPerimeter=0;" parent="fpg7xmmu9MJaWytv52l8-134" source="fpg7xmmu9MJaWytv52l8-163" target="fpg7xmmu9MJaWytv52l8-155" edge="1">
            <mxGeometry width="100" height="100" relative="1" as="geometry">
              <Array as="points">
                <mxPoint x="2161" y="803" />
                <mxPoint x="2161" y="870" />
                <mxPoint x="2475" y="870" />
                <mxPoint x="2475" y="907" />
              </Array>
            </mxGeometry>
          </mxCell>
        </UserObject>
        <UserObject label="&lt;div style=&quot;display: flex; justify-content: center; text-align: center; align-items: baseline; font-size: 0; line-height: 1.25;margin-top: -2px;&quot;&gt;&lt;span&gt;&lt;span style=&quot;font-size:12px;color:#000000;font-family: Liberation Mono;&quot;&gt;dim&lt;/span&gt;&lt;span style=&quot;font-size:12px;color:#24292e;font-family: Liberation Mono;&quot;&gt;.&lt;/span&gt;&lt;span style=&quot;font-size:12px;color:#000000;font-family: Liberation Mono;&quot;&gt;runlog&lt;/span&gt;&lt;/span&gt;&lt;/div&gt;" lucidchartObjectId="Qb7ytP.mCH2o" id="fpg7xmmu9MJaWytv52l8-184">
          <mxCell style="html=1;overflow=block;blockSpacing=1;whiteSpace=wrap;;whiteSpace=wrap;fontSize=13;fontFamily=Liberation Mono;spacing=3.8;strokeColor=#4881b3;strokeOpacity=100;rounded=1;absoluteArcSize=1;arcSize=9;fillColor=#F5FBFF;strokeWidth=2.3;" parent="fpg7xmmu9MJaWytv52l8-134" vertex="1">
            <mxGeometry x="2100" y="885" width="270" height="45" as="geometry" />
          </mxCell>
        </UserObject>
        <UserObject label="" lucidchartObjectId="_b7ykMI7~ysz" id="fpg7xmmu9MJaWytv52l8-185">
          <mxCell style="html=1;jettySize=18;whiteSpace=wrap;fontSize=13;strokeColor=#224C72;strokeWidth=1.5;rounded=1;arcSize=12;edgeStyle=orthogonalEdgeStyle;startArrow=none;;endArrow=block;endFill=1;;exitX=1.004;exitY=0.5;exitPerimeter=0;entryX=-0.004;entryY=0.5;entryPerimeter=0;" parent="fpg7xmmu9MJaWytv52l8-134" source="fpg7xmmu9MJaWytv52l8-184" target="fpg7xmmu9MJaWytv52l8-155" edge="1">
            <mxGeometry width="100" height="100" relative="1" as="geometry">
              <Array as="points" />
            </mxGeometry>
          </mxCell>
        </UserObject>
        <UserObject label="" lucidchartObjectId="rf7yv8mnejDO" id="fpg7xmmu9MJaWytv52l8-186">
          <mxCell style="html=1;jettySize=18;whiteSpace=wrap;fontSize=13;strokeColor=#224C72;strokeWidth=1.5;rounded=1;arcSize=12;edgeStyle=orthogonalEdgeStyle;startArrow=none;;endArrow=block;endFill=1;;exitX=1.004;exitY=0.5;exitPerimeter=0;entryX=-0.004;entryY=0.5;entryPerimeter=0;" parent="fpg7xmmu9MJaWytv52l8-134" source="fpg7xmmu9MJaWytv52l8-162" target="fpg7xmmu9MJaWytv52l8-155" edge="1">
            <mxGeometry width="100" height="100" relative="1" as="geometry">
              <Array as="points">
                <mxPoint x="2650" y="203" />
                <mxPoint x="2650" y="908" />
              </Array>
            </mxGeometry>
          </mxCell>
        </UserObject>
        <UserObject label="" lucidchartObjectId="8f7yMeXQ_CX2" id="fpg7xmmu9MJaWytv52l8-187">
          <mxCell style="html=1;jettySize=18;whiteSpace=wrap;fontSize=13;strokeColor=#224C72;strokeWidth=1.5;rounded=1;arcSize=12;edgeStyle=orthogonalEdgeStyle;startArrow=none;;endArrow=block;endFill=1;;exitX=1.004;exitY=0.5;exitPerimeter=0;entryX=-0.004;entryY=0.5;entryPerimeter=0;" parent="fpg7xmmu9MJaWytv52l8-134" source="fpg7xmmu9MJaWytv52l8-164" target="fpg7xmmu9MJaWytv52l8-155" edge="1">
            <mxGeometry width="100" height="100" relative="1" as="geometry">
              <Array as="points">
                <mxPoint x="2630" y="278" />
                <mxPoint x="2630" y="908" />
              </Array>
            </mxGeometry>
          </mxCell>
        </UserObject>
        <UserObject label="&lt;div style=&quot;display: flex; justify-content: center; text-align: center; align-items: baseline; font-size: 0; line-height: 1.25;margin-top: -2px;&quot;&gt;&lt;span&gt;&lt;span style=&quot;font-size:12px;color:#000000;font-family: Liberation Mono;&quot;&gt;dim&lt;/span&gt;&lt;span style=&quot;font-size:12px;color:#24292e;font-family: Liberation Mono;&quot;&gt;.&lt;/span&gt;&lt;span style=&quot;font-size:12px;color:#000000;font-family: Liberation Mono;&quot;&gt;indexfilenumber&lt;/span&gt;&lt;/span&gt;&lt;/div&gt;" lucidchartObjectId="9h7yrI-8nCq-" id="fpg7xmmu9MJaWytv52l8-188">
          <mxCell style="html=1;overflow=block;blockSpacing=1;whiteSpace=wrap;;whiteSpace=wrap;fontSize=13;fontFamily=Liberation Mono;spacing=3.8;strokeColor=#4881b3;strokeOpacity=100;rounded=1;absoluteArcSize=1;arcSize=9;fillColor=#F5FBFF;strokeWidth=2.3;" parent="fpg7xmmu9MJaWytv52l8-134" vertex="1">
            <mxGeometry x="2100" y="960" width="270" height="45" as="geometry" />
          </mxCell>
        </UserObject>
        <UserObject label="" lucidchartObjectId="ri7yscyHyNUb" id="fpg7xmmu9MJaWytv52l8-189">
          <mxCell style="html=1;jettySize=18;whiteSpace=wrap;fontSize=13;strokeColor=#224C72;strokeWidth=1.5;rounded=1;arcSize=12;edgeStyle=orthogonalEdgeStyle;startArrow=none;;endArrow=block;endFill=1;;exitX=1.004;exitY=0.5;exitPerimeter=0;entryX=-0.004;entryY=0.5;entryPerimeter=0;" parent="fpg7xmmu9MJaWytv52l8-134" source="fpg7xmmu9MJaWytv52l8-188" target="fpg7xmmu9MJaWytv52l8-155" edge="1">
            <mxGeometry width="100" height="100" relative="1" as="geometry">
              <Array as="points">
                <mxPoint x="2490" y="983" />
                <mxPoint x="2490" y="908" />
              </Array>
            </mxGeometry>
          </mxCell>
        </UserObject>
        <UserObject label="" lucidchartObjectId="Hj7y7Fu7~2g4" id="fpg7xmmu9MJaWytv52l8-190">
          <mxCell style="html=1;jettySize=18;whiteSpace=wrap;fontSize=13;strokeColor=#224C72;strokeWidth=1.5;rounded=1;arcSize=12;edgeStyle=orthogonalEdgeStyle;startArrow=none;;endArrow=block;endFill=1;;exitX=1.004;exitY=0.5;exitPerimeter=0;entryX=-0.004;entryY=0.5;entryPerimeter=0;" parent="fpg7xmmu9MJaWytv52l8-134" source="fpg7xmmu9MJaWytv52l8-137" target="fpg7xmmu9MJaWytv52l8-155" edge="1">
            <mxGeometry width="100" height="100" relative="1" as="geometry">
              <Array as="points">
                <mxPoint x="2560" y="1358" />
                <mxPoint x="2560" y="908" />
              </Array>
            </mxGeometry>
          </mxCell>
        </UserObject>
        <UserObject label="" lucidchartObjectId="zk7yb7O~yfsV" id="fpg7xmmu9MJaWytv52l8-191">
          <mxCell style="html=1;jettySize=18;whiteSpace=wrap;fontSize=13;strokeColor=#224C72;strokeWidth=1.5;rounded=1;arcSize=12;edgeStyle=orthogonalEdgeStyle;startArrow=none;;endArrow=block;endFill=1;;exitX=1.004;exitY=0.5;exitPerimeter=0;entryX=-0.004;entryY=0.5;entryPerimeter=0;" parent="fpg7xmmu9MJaWytv52l8-134" source="fpg7xmmu9MJaWytv52l8-142" target="fpg7xmmu9MJaWytv52l8-155" edge="1">
            <mxGeometry width="100" height="100" relative="1" as="geometry">
              <Array as="points">
                <mxPoint x="2590" y="1433" />
                <mxPoint x="2590" y="908" />
              </Array>
            </mxGeometry>
          </mxCell>
        </UserObject>
        <UserObject label="&lt;div style=&quot;display: flex; justify-content: center; text-align: center; align-items: baseline; font-size: 0; line-height: 1.25;margin-top: -2px;&quot;&gt;&lt;span&gt;&lt;span style=&quot;font-size:12px;color:#000000;font-family: Liberation Mono;&quot;&gt;dim&lt;/span&gt;&lt;span style=&quot;font-size:12px;color:#24292e;font-family: Liberation Mono;&quot;&gt;.&lt;/span&gt;&lt;span style=&quot;font-size:12px;color:#000000;font-family: Liberation Mono;&quot;&gt;solvencyiiclassification&lt;/span&gt;&lt;/span&gt;&lt;/div&gt;" lucidchartObjectId="rm7yS5MzjDek" id="fpg7xmmu9MJaWytv52l8-192">
          <mxCell style="html=1;overflow=block;blockSpacing=1;whiteSpace=wrap;;whiteSpace=wrap;fontSize=13;fontFamily=Liberation Mono;spacing=3.8;strokeColor=#4881b3;strokeOpacity=100;rounded=1;absoluteArcSize=1;arcSize=9;fillColor=#F5FBFF;strokeWidth=2.3;" parent="fpg7xmmu9MJaWytv52l8-134" vertex="1">
            <mxGeometry x="2090" y="1030" width="270" height="45" as="geometry" />
          </mxCell>
        </UserObject>
        <UserObject label="" lucidchartObjectId="Om7ymXhgPVFt" id="fpg7xmmu9MJaWytv52l8-193">
          <mxCell style="html=1;jettySize=18;whiteSpace=wrap;fontSize=13;strokeColor=#224C72;strokeWidth=1.5;rounded=1;arcSize=12;edgeStyle=orthogonalEdgeStyle;startArrow=none;;endArrow=block;endFill=1;;exitX=1.004;exitY=0.5;exitPerimeter=0;entryX=-0.004;entryY=0.5;entryPerimeter=0;" parent="fpg7xmmu9MJaWytv52l8-134" source="fpg7xmmu9MJaWytv52l8-192" target="fpg7xmmu9MJaWytv52l8-155" edge="1">
            <mxGeometry width="100" height="100" relative="1" as="geometry">
              <Array as="points">
                <mxPoint x="2500" y="1053" />
                <mxPoint x="2500" y="907" />
              </Array>
            </mxGeometry>
          </mxCell>
        </UserObject>
        <mxCell id="fpg7xmmu9MJaWytv52l8-194" value="top" parent="0" />
        <mxCell id="fpg7xmmu9MJaWytv52l8-195" value="" style="group;dropTarget=0;" parent="fpg7xmmu9MJaWytv52l8-194" vertex="1">
          <mxGeometry as="geometry" />
        </mxCell>
      </root>
    </mxGraphModel>
  </diagram>
</mxfile>
